<svg id="SvgjsSvg16912" width="92.25" height="50" xmlns="http://www.w3.org/2000/svg" version="1.1" xmlns:xlink="http://www.w3.org/1999/xlink" xmlns:svgjs="http://svgjs.dev" class="apexcharts-svg" xmlns:data="ApexChartsNS" transform="translate(0, 0)" style="background: transparent;"><g id="SvgjsG16914" class="apexcharts-inner apexcharts-graphical" transform="translate(0, 0)"><defs id="SvgjsDefs16913"><clipPath id="gridRectMasko5q10hm4"><rect id="SvgjsRect16918" width="98.25" height="52" x="-3" y="-1" rx="0" ry="0" opacity="1" stroke-width="0" stroke="none" stroke-dasharray="0" fill="#fff"></rect></clipPath><clipPath id="forecastMasko5q10hm4"></clipPath><clipPath id="nonForecastMasko5q10hm4"></clipPath><clipPath id="gridRectMarkerMasko5q10hm4"><rect id="SvgjsRect16919" width="96.25" height="54" x="-2" y="-2" rx="0" ry="0" opacity="1" stroke-width="0" stroke="none" stroke-dasharray="0" fill="#fff"></rect></clipPath></defs><g id="SvgjsG16943" class="apexcharts-xaxis" transform="translate(0, 0)"><g id="SvgjsG16944" class="apexcharts-xaxis-texts-g" transform="translate(0, 4)"></g></g><g id="SvgjsG16926" class="apexcharts-grid"><g id="SvgjsG16927" class="apexcharts-gridlines-horizontal" style="display: none;"><line id="SvgjsLine16931" x1="0" y1="5" x2="92.25" y2="5" stroke="#e0e0e0" stroke-dasharray="0" stroke-linecap="butt" class="apexcharts-gridline"></line><line id="SvgjsLine16932" x1="0" y1="10" x2="92.25" y2="10" stroke="#e0e0e0" stroke-dasharray="0" stroke-linecap="butt" class="apexcharts-gridline"></line><line id="SvgjsLine16933" x1="0" y1="15" x2="92.25" y2="15" stroke="#e0e0e0" stroke-dasharray="0" stroke-linecap="butt" class="apexcharts-gridline"></line><line id="SvgjsLine16934" x1="0" y1="20" x2="92.25" y2="20" stroke="#e0e0e0" stroke-dasharray="0" stroke-linecap="butt" class="apexcharts-gridline"></line><line id="SvgjsLine16935" x1="0" y1="25" x2="92.25" y2="25" stroke="#e0e0e0" stroke-dasharray="0" stroke-linecap="butt" class="apexcharts-gridline"></line><line id="SvgjsLine16936" x1="0" y1="30" x2="92.25" y2="30" stroke="#e0e0e0" stroke-dasharray="0" stroke-linecap="butt" class="apexcharts-gridline"></line><line id="SvgjsLine16937" x1="0" y1="35" x2="92.25" y2="35" stroke="#e0e0e0" stroke-dasharray="0" stroke-linecap="butt" class="apexcharts-gridline"></line><line id="SvgjsLine16938" x1="0" y1="40" x2="92.25" y2="40" stroke="#e0e0e0" stroke-dasharray="0" stroke-linecap="butt" class="apexcharts-gridline"></line><line id="SvgjsLine16939" x1="0" y1="45" x2="92.25" y2="45" stroke="#e0e0e0" stroke-dasharray="0" stroke-linecap="butt" class="apexcharts-gridline"></line></g><g id="SvgjsG16928" class="apexcharts-gridlines-vertical" style="display: none;"></g><line id="SvgjsLine16942" x1="0" y1="50" x2="92.25" y2="50" stroke="transparent" stroke-dasharray="0" stroke-linecap="butt"></line><line id="SvgjsLine16941" x1="0" y1="1" x2="0" y2="50" stroke="transparent" stroke-dasharray="0" stroke-linecap="butt"></line></g><g id="SvgjsG16920" class="apexcharts-area-series apexcharts-plot-series"><g id="SvgjsG16921" class="apexcharts-series" seriesName="NetxProfit" data:longestSeries="true" rel="1" data:realIndex="0"><path id="SvgjsPath16924" d="M 0 50 L 0 40C 2.483653846153846 40 4.612500000000001 45.833333333333336 7.096153846153847 45.833333333333336C 9.579807692307693 45.833333333333336 11.708653846153847 30.833333333333332 14.192307692307693 30.833333333333332C 16.67596153846154 30.833333333333332 18.804807692307694 40 21.28846153846154 40C 23.772115384615386 40 25.90096153846154 32.5 28.384615384615387 32.5C 30.868269230769233 32.5 32.997115384615384 42.5 35.48076923076923 42.5C 37.96442307692308 42.5 40.09326923076924 35.83333333333333 42.57692307692308 35.83333333333333C 45.06057692307692 35.83333333333333 47.18942307692308 33.33333333333333 49.67307692307693 33.33333333333333C 52.156730769230776 33.33333333333333 54.28557692307693 46.666666666666664 56.769230769230774 46.666666666666664C 59.252884615384616 46.666666666666664 61.38173076923077 30 63.86538461538462 30C 66.34903846153847 30 68.47788461538462 42.5 70.96153846153847 42.5C 73.44519230769231 42.5 75.57403846153846 39.166666666666664 78.0576923076923 39.166666666666664C 80.54134615384615 39.166666666666664 82.67019230769232 35 85.15384615384616 35C 87.6375 35 89.76634615384616 42.5 92.25 42.5C 92.25 42.5 92.25 42.5 92.25 50M 92.25 42.5z" fill="rgba(255,255,255,1)" fill-opacity="1" stroke-opacity="1" stroke-linecap="butt" stroke-width="0" stroke-dasharray="0" class="apexcharts-area" index="0" clip-path="url(#gridRectMasko5q10hm4)" pathTo="M 0 50 L 0 40C 2.483653846153846 40 4.612500000000001 45.833333333333336 7.096153846153847 45.833333333333336C 9.579807692307693 45.833333333333336 11.708653846153847 30.833333333333332 14.192307692307693 30.833333333333332C 16.67596153846154 30.833333333333332 18.804807692307694 40 21.28846153846154 40C 23.772115384615386 40 25.90096153846154 32.5 28.384615384615387 32.5C 30.868269230769233 32.5 32.997115384615384 42.5 35.48076923076923 42.5C 37.96442307692308 42.5 40.09326923076924 35.83333333333333 42.57692307692308 35.83333333333333C 45.06057692307692 35.83333333333333 47.18942307692308 33.33333333333333 49.67307692307693 33.33333333333333C 52.156730769230776 33.33333333333333 54.28557692307693 46.666666666666664 56.769230769230774 46.666666666666664C 59.252884615384616 46.666666666666664 61.38173076923077 30 63.86538461538462 30C 66.34903846153847 30 68.47788461538462 42.5 70.96153846153847 42.5C 73.44519230769231 42.5 75.57403846153846 39.166666666666664 78.0576923076923 39.166666666666664C 80.54134615384615 39.166666666666664 82.67019230769232 35 85.15384615384616 35C 87.6375 35 89.76634615384616 42.5 92.25 42.5C 92.25 42.5 92.25 42.5 92.25 50M 92.25 42.5z" pathFrom="M -1 50 L -1 50 L 7.096153846153847 50 L 14.192307692307693 50 L 21.28846153846154 50 L 28.384615384615387 50 L 35.48076923076923 50 L 42.57692307692308 50 L 49.67307692307693 50 L 56.769230769230774 50 L 63.86538461538462 50 L 70.96153846153847 50 L 78.0576923076923 50 L 85.15384615384616 50 L 92.25 50"></path><path id="SvgjsPath16925" d="M 0 40C 2.483653846153846 40 4.612500000000001 45.833333333333336 7.096153846153847 45.833333333333336C 9.579807692307693 45.833333333333336 11.708653846153847 30.833333333333332 14.192307692307693 30.833333333333332C 16.67596153846154 30.833333333333332 18.804807692307694 40 21.28846153846154 40C 23.772115384615386 40 25.90096153846154 32.5 28.384615384615387 32.5C 30.868269230769233 32.5 32.997115384615384 42.5 35.48076923076923 42.5C 37.96442307692308 42.5 40.09326923076924 35.83333333333333 42.57692307692308 35.83333333333333C 45.06057692307692 35.83333333333333 47.18942307692308 33.33333333333333 49.67307692307693 33.33333333333333C 52.156730769230776 33.33333333333333 54.28557692307693 46.666666666666664 56.769230769230774 46.666666666666664C 59.252884615384616 46.666666666666664 61.38173076923077 30 63.86538461538462 30C 66.34903846153847 30 68.47788461538462 42.5 70.96153846153847 42.5C 73.44519230769231 42.5 75.57403846153846 39.166666666666664 78.0576923076923 39.166666666666664C 80.54134615384615 39.166666666666664 82.67019230769232 35 85.15384615384616 35C 87.6375 35 89.76634615384616 42.5 92.25 42.5" fill="none" fill-opacity="1" stroke="#50cd89" stroke-opacity="1" stroke-linecap="butt" stroke-width="2" stroke-dasharray="0" class="apexcharts-area" index="0" clip-path="url(#gridRectMasko5q10hm4)" pathTo="M 0 40C 2.483653846153846 40 4.612500000000001 45.833333333333336 7.096153846153847 45.833333333333336C 9.579807692307693 45.833333333333336 11.708653846153847 30.833333333333332 14.192307692307693 30.833333333333332C 16.67596153846154 30.833333333333332 18.804807692307694 40 21.28846153846154 40C 23.772115384615386 40 25.90096153846154 32.5 28.384615384615387 32.5C 30.868269230769233 32.5 32.997115384615384 42.5 35.48076923076923 42.5C 37.96442307692308 42.5 40.09326923076924 35.83333333333333 42.57692307692308 35.83333333333333C 45.06057692307692 35.83333333333333 47.18942307692308 33.33333333333333 49.67307692307693 33.33333333333333C 52.156730769230776 33.33333333333333 54.28557692307693 46.666666666666664 56.769230769230774 46.666666666666664C 59.252884615384616 46.666666666666664 61.38173076923077 30 63.86538461538462 30C 66.34903846153847 30 68.47788461538462 42.5 70.96153846153847 42.5C 73.44519230769231 42.5 75.57403846153846 39.166666666666664 78.0576923076923 39.166666666666664C 80.54134615384615 39.166666666666664 82.67019230769232 35 85.15384615384616 35C 87.6375 35 89.76634615384616 42.5 92.25 42.5" pathFrom="M -1 50 L -1 50 L 7.096153846153847 50 L 14.192307692307693 50 L 21.28846153846154 50 L 28.384615384615387 50 L 35.48076923076923 50 L 42.57692307692308 50 L 49.67307692307693 50 L 56.769230769230774 50 L 63.86538461538462 50 L 70.96153846153847 50 L 78.0576923076923 50 L 85.15384615384616 50 L 92.25 50" fill-rule="evenodd"></path><g id="SvgjsG16922" class="apexcharts-series-markers-wrap" data:realIndex="0"></g></g><g id="SvgjsG16923" class="apexcharts-datalabels" data:realIndex="0"></g></g><g id="SvgjsG16929" class="apexcharts-grid-borders" style="display: none;"><line id="SvgjsLine16930" x1="0" y1="0" x2="92.25" y2="0" stroke="#e0e0e0" stroke-dasharray="0" stroke-linecap="butt" class="apexcharts-gridline"></line><line id="SvgjsLine16940" x1="0" y1="50" x2="92.25" y2="50" stroke="#e0e0e0" stroke-dasharray="0" stroke-linecap="butt" class="apexcharts-gridline"></line></g><line id="SvgjsLine16960" x1="0" y1="0" x2="92.25" y2="0" stroke="#b6b6b6" stroke-dasharray="0" stroke-width="1" stroke-linecap="butt" class="apexcharts-ycrosshairs"></line><line id="SvgjsLine16961" x1="0" y1="0" x2="92.25" y2="0" stroke-dasharray="0" stroke-width="0" stroke-linecap="butt" class="apexcharts-ycrosshairs-hidden"></line><g id="SvgjsG16962" class="apexcharts-yaxis-annotations"></g><g id="SvgjsG16963" class="apexcharts-xaxis-annotations"></g><g id="SvgjsG16964" class="apexcharts-point-annotations"></g></g><g id="SvgjsG16959" class="apexcharts-yaxis" rel="0" transform="translate(-18, 0)"></g><g id="SvgjsG16915" class="apexcharts-annotations"></g></svg>