<svg style="background: transparent;">
<path id="SvgjsPath16765" d="M 0 50 L 0 36.666666666666664C 2.483653846153846 36.666666666666664 4.612500000000001 41.666666666666664 7.096153846153847 41.666666666666664C 9.579807692307693 41.666666666666664 11.708653846153847 37.5 14.192307692307693 37.5C 16.67596153846154 37.5 18.804807692307694 32.5 21.28846153846154 32.5C 23.772115384615386 32.5 25.90096153846154 45 28.384615384615387 45C 30.868269230769233 45 32.997115384615384 40.83333333333333 35.48076923076923 40.83333333333333C 37.96442307692308 40.83333333333333 40.09326923076924 45.833333333333336 42.57692307692308 45.833333333333336C 45.06057692307692 45.833333333333336 47.18942307692308 30.833333333333332 49.67307692307693 30.833333333333332C 52.156730769230776 30.833333333333332 54.28557692307693 45.833333333333336 56.769230769230774 45.833333333333336C 59.252884615384616 45.833333333333336 61.38173076923077 40.83333333333333 63.86538461538462 40.83333333333333C 66.34903846153847 40.83333333333333 68.47788461538462 35 70.96153846153847 35C 73.44519230769231 35 75.57403846153846 44.166666666666664 78.0576923076923 44.166666666666664C 80.54134615384615 44.166666666666664 82.67019230769232 32.5 85.15384615384616 32.5C 87.6375 32.5 89.76634615384616 39.166666666666664 92.25 39.166666666666664C 92.25 39.166666666666664 92.25 39.166666666666664 92.25 50M 92.25 39.166666666666664z" fill="rgba(255,255,255,1)" fill-opacity="1" stroke-opacity="1" stroke-linecap="butt" stroke-width="0" stroke-dasharray="0" class="apexcharts-area" index="0" clip-path="url(#gridRectMaskatiq0lpi)" pathTo="M 0 50 L 0 36.666666666666664C 2.483653846153846 36.666666666666664 4.612500000000001 41.666666666666664 7.096153846153847 41.666666666666664C 9.579807692307693 41.666666666666664 11.708653846153847 37.5 14.192307692307693 37.5C 16.67596153846154 37.5 18.804807692307694 32.5 21.28846153846154 32.5C 23.772115384615386 32.5 25.90096153846154 45 28.384615384615387 45C 30.868269230769233 45 32.997115384615384 40.83333333333333 35.48076923076923 40.83333333333333C 37.96442307692308 40.83333333333333 40.09326923076924 45.833333333333336 42.57692307692308 45.833333333333336C 45.06057692307692 45.833333333333336 47.18942307692308 30.833333333333332 49.67307692307693 30.833333333333332C 52.156730769230776 30.833333333333332 54.28557692307693 45.833333333333336 56.769230769230774 45.833333333333336C 59.252884615384616 45.833333333333336 61.38173076923077 40.83333333333333 63.86538461538462 40.83333333333333C 66.34903846153847 40.83333333333333 68.47788461538462 35 70.96153846153847 35C 73.44519230769231 35 75.57403846153846 44.166666666666664 78.0576923076923 44.166666666666664C 80.54134615384615 44.166666666666664 82.67019230769232 32.5 85.15384615384616 32.5C 87.6375 32.5 89.76634615384616 39.166666666666664 92.25 39.166666666666664C 92.25 39.166666666666664 92.25 39.166666666666664 92.25 50M 92.25 39.166666666666664z" pathFrom="M -1 50 L -1 50 L 7.096153846153847 50 L 14.192307692307693 50 L 21.28846153846154 50 L 28.384615384615387 50 L 35.48076923076923 50 L 42.57692307692308 50 L 49.67307692307693 50 L 56.769230769230774 50 L 63.86538461538462 50 L 70.96153846153847 50 L 78.0576923076923 50 L 85.15384615384616 50 L 92.25 50"></path>
</svg>